<svg width="623" height="103" viewBox="0 0 623 103" fill="none" xmlns="http://www.w3.org/2000/svg">
<path d="M57.525 102.225C49.475 102.225 42 101.225 35.1 99.225C28.2 97.225 22.175 94.15 17.025 90C11.875 85.85 7.875 80.575 5.025 74.175C2.175 67.725 0.75 60.075 0.75 51.225C0.75 43.475 2.025 36.75 4.575 31.05C7.125 25.35 10.6 20.55 15 16.65C19.45 12.75 24.525 9.65 30.225 7.35C35.925 5 41.975 3.325 48.375 2.325C54.775 1.275 61.15 0.75 67.5 0.75C71.1 0.75 74.725 1.1 78.375 1.8C82.025 2.45 85.375 3.5 88.425 4.95C91.475 6.35 93.925 8.175 95.775 10.425C97.625 12.625 98.55 15.25 98.55 18.3C98.55 22.65 97.15 25.9 94.35 28.05C91.55 30.15 88 31.2 83.7 31.2C81.45 31.2 79.525 31.125 77.925 30.975C76.325 30.825 74.875 30.65 73.575 30.45C72.275 30.2 70.975 30 69.675 29.85C68.375 29.7 66.925 29.625 65.325 29.625C61.975 29.625 59.075 30.175 56.625 31.275C54.175 32.375 52.15 33.925 50.55 35.925C49 37.875 47.825 40.2 47.025 42.9C46.275 45.55 45.9 48.45 45.9 51.6C45.9 55.45 46.675 58.825 48.225 61.725C49.775 64.625 52.1 66.875 55.2 68.475C58.35 70.075 62.25 70.875 66.9 70.875C67.6 70.875 68.3 70.85 69 70.8C69.7 70.75 70.325 70.675 70.875 70.575C71.425 70.425 71.85 70.225 72.15 69.975C72.5 69.675 72.675 69.275 72.675 68.775C72.675 68.125 72.4 67.575 71.85 67.125C71.35 66.625 70.525 66.15 69.375 65.7C68.225 65.25 66.7 64.775 64.8 64.275C61.9 63.525 59.425 62.1 57.375 60C55.325 57.9 54.3 54.65 54.3 50.25C54.3 46.7 55.5 43.85 57.9 41.7C60.35 39.5 63.5 37.925 67.35 36.975C71.2 35.975 75.25 35.475 79.5 35.475C85.1 35.475 90.2 36.025 94.8 37.125C99.4 38.175 103.35 39.85 106.65 42.15C109.95 44.45 112.475 47.425 114.225 51.075C116.025 54.675 116.925 59.025 116.925 64.125C116.925 72.025 115.4 78.475 112.35 83.475C109.3 88.475 105.05 92.35 99.6 95.1C94.2 97.8 87.9 99.65 80.7 100.65C73.55 101.7 65.825 102.225 57.525 102.225Z" fill="#38B000"/>
<path d="M134.719 99.15C129.269 99.15 124.594 98.1 120.694 96C116.844 93.9 113.869 90.95 111.769 87.15C111.019 85.75 110.369 84.125 109.819 82.275C109.269 80.425 108.819 78.425 108.469 76.275C108.119 74.075 107.844 71.85 107.644 69.6C107.444 67.3 107.294 65.025 107.194 62.775C107.144 60.525 107.119 58.4 107.119 56.4C107.119 47.8 108.019 40.45 109.819 34.35C111.619 28.25 114.169 23.2 117.469 19.2C120.769 15.2 124.694 12.075 129.244 9.825C133.844 7.525 138.919 5.9 144.469 4.95C150.069 4 155.994 3.525 162.244 3.525C167.644 3.525 172.944 4.2 178.144 5.55C183.394 6.9 188.144 8.90001 192.394 11.55C196.694 14.15 200.119 17.325 202.669 21.075C205.219 24.825 206.494 29.1 206.494 33.9C206.494 37.35 206.094 40.2 205.294 42.45C204.494 44.65 203.394 46.45 201.994 47.85C200.644 49.2 199.119 50.275 197.419 51.075C195.719 51.825 193.944 52.475 192.094 53.025C191.044 53.325 190.094 53.75 189.244 54.3C188.444 54.85 188.044 55.55 188.044 56.4C188.044 57 188.744 57.95 190.144 59.25C191.594 60.55 193.344 62.05 195.394 63.75C197.444 65.45 199.469 67.2 201.469 69C203.469 70.75 205.044 72.375 206.194 73.875C206.694 74.525 207.144 75.175 207.544 75.825C207.944 76.475 208.294 77.125 208.594 77.775C208.894 78.425 209.144 79.075 209.344 79.725C209.544 80.325 209.694 80.95 209.794 81.6C209.894 82.25 209.944 82.875 209.944 83.475C209.944 86.625 208.919 89.3 206.869 91.5C204.819 93.65 202.169 95.275 198.919 96.375C195.719 97.475 192.344 98.025 188.794 98.025C185.994 98.025 183.394 97.7 180.994 97.05C178.644 96.45 176.494 95.55 174.544 94.35C172.594 93.1 170.819 91.55 169.219 89.7C167.619 87.8 166.169 85.6 164.869 83.1C163.669 80.75 162.444 78.6 161.194 76.65C159.944 74.65 158.794 73.05 157.744 71.85C156.694 70.6 155.894 69.975 155.344 69.975C155.094 69.975 154.894 70.075 154.744 70.275C154.594 70.475 154.494 70.775 154.444 71.175C154.394 71.575 154.344 72.05 154.294 72.6C154.294 73.1 154.294 73.675 154.294 74.325C154.294 75.025 154.294 75.85 154.294 76.8C154.294 77.7 154.269 78.65 154.219 79.65C154.219 80.65 154.169 81.65 154.069 82.65C154.019 83.65 153.944 84.625 153.844 85.575C153.744 86.525 153.594 87.375 153.394 88.125C152.394 92.425 150.094 95.325 146.494 96.825C142.944 98.375 139.019 99.15 134.719 99.15ZM159.694 42.225C160.494 42.225 161.269 42.125 162.019 41.925C162.819 41.675 163.544 41.325 164.194 40.875C164.894 40.375 165.494 39.8 165.994 39.15C166.494 38.45 166.869 37.625 167.119 36.675C167.419 35.725 167.569 34.675 167.569 33.525C167.569 32.475 167.344 31.525 166.894 30.675C166.494 29.825 165.919 29.125 165.169 28.575C164.419 27.975 163.569 27.525 162.619 27.225C161.669 26.925 160.669 26.775 159.619 26.775C158.319 26.775 157.269 26.95 156.469 27.3C155.669 27.65 155.019 28.125 154.519 28.725C154.019 29.275 153.594 29.9 153.244 30.6C152.944 31.2 152.669 31.85 152.419 32.55C152.219 33.25 152.069 34.025 151.969 34.875C151.869 35.725 151.819 36.75 151.819 37.95C151.819 38.85 152.194 39.625 152.944 40.275C153.694 40.925 154.669 41.425 155.869 41.775C157.119 42.075 158.394 42.225 159.694 42.225Z" fill="#38B000"/>
<path d="M238.692 99.225C233.142 99.225 227.842 98.2 222.792 96.15C217.742 94.1 213.467 90.85 209.967 86.4C206.467 81.95 204.167 76.1 203.067 68.85C202.867 67.45 202.692 66 202.542 64.5C202.392 63 202.267 61.45 202.167 59.85C202.067 58.2 201.992 56.55 201.942 54.9C201.892 53.2 201.867 51.45 201.867 49.65C201.867 40.2 202.992 32.35 205.242 26.1C207.492 19.85 210.717 14.925 214.917 11.325C219.167 7.675 224.267 5.1 230.217 3.6C236.217 2.05 242.917 1.27501 250.317 1.27501C254.167 1.27501 257.767 1.50001 261.117 1.95C264.467 2.35 267.392 3.05 269.892 4.05C272.442 5 274.417 6.30001 275.817 7.95001C277.267 9.60001 277.992 11.65 277.992 14.1C277.992 17.05 277.167 19.45 275.517 21.3C273.917 23.15 271.942 24.425 269.592 25.125C267.942 25.625 265.917 26.075 263.517 26.475C261.167 26.825 258.792 27.125 256.392 27.375C254.042 27.575 251.992 27.7 250.242 27.75C249.142 27.8 248.242 27.95 247.542 28.2C246.892 28.4 246.392 28.7 246.042 29.1C245.692 29.45 245.442 29.875 245.292 30.375C245.192 30.825 245.142 31.275 245.142 31.725C245.142 32.375 245.267 33.025 245.517 33.675C245.767 34.325 246.192 34.85 246.792 35.25C247.392 35.65 248.192 35.85 249.192 35.85C250.392 35.85 251.492 35.825 252.492 35.775C253.492 35.725 254.442 35.65 255.342 35.55C256.292 35.45 257.242 35.375 258.192 35.325C259.192 35.275 260.242 35.25 261.342 35.25C264.992 35.25 267.767 36.275 269.667 38.325C271.617 40.375 272.592 43.225 272.592 46.875C272.592 52.425 271.217 56.275 268.467 58.425C265.767 60.575 262.642 61.65 259.092 61.65C257.842 61.65 256.667 61.65 255.567 61.65C254.517 61.65 253.517 61.65 252.567 61.65C251.667 61.6 250.792 61.575 249.942 61.575C249.142 61.575 248.392 61.575 247.692 61.575C246.442 61.575 245.392 61.75 244.542 62.1C243.742 62.4 243.142 62.8 242.742 63.3C242.392 63.8 242.217 64.375 242.217 65.025C242.217 65.425 242.317 65.8 242.517 66.15C242.767 66.5 243.142 66.8 243.642 67.05C244.142 67.3 244.792 67.525 245.592 67.725C246.392 67.875 247.342 68 248.442 68.1C249.592 68.2 250.942 68.25 252.492 68.25C253.842 68.25 255.292 68.275 256.842 68.325C258.392 68.325 259.917 68.35 261.417 68.4C262.967 68.45 264.317 68.475 265.467 68.475C269.617 68.475 272.717 69.55 274.767 71.7C276.817 73.8 277.842 76.775 277.842 80.625C277.842 84.675 276.592 87.95 274.092 90.45C271.592 92.9 268.342 94.75 264.342 96C260.392 97.3 256.142 98.15 251.592 98.55C247.042 99 242.742 99.225 238.692 99.225Z" fill="#38B000"/>
<path d="M310.229 99.225C304.679 99.225 299.379 98.2 294.329 96.15C289.279 94.1 285.004 90.85 281.504 86.4C278.004 81.95 275.704 76.1 274.604 68.85C274.404 67.45 274.229 66 274.079 64.5C273.929 63 273.804 61.45 273.704 59.85C273.604 58.2 273.529 56.55 273.479 54.9C273.429 53.2 273.404 51.45 273.404 49.65C273.404 40.2 274.529 32.35 276.779 26.1C279.029 19.85 282.254 14.925 286.454 11.325C290.704 7.675 295.804 5.1 301.754 3.6C307.754 2.05 314.454 1.27501 321.854 1.27501C325.704 1.27501 329.304 1.50001 332.654 1.95C336.004 2.35 338.929 3.05 341.429 4.05C343.979 5 345.954 6.30001 347.354 7.95001C348.804 9.60001 349.529 11.65 349.529 14.1C349.529 17.05 348.704 19.45 347.054 21.3C345.454 23.15 343.479 24.425 341.129 25.125C339.479 25.625 337.454 26.075 335.054 26.475C332.704 26.825 330.329 27.125 327.929 27.375C325.579 27.575 323.529 27.7 321.779 27.75C320.679 27.8 319.779 27.95 319.079 28.2C318.429 28.4 317.929 28.7 317.579 29.1C317.229 29.45 316.979 29.875 316.829 30.375C316.729 30.825 316.679 31.275 316.679 31.725C316.679 32.375 316.804 33.025 317.054 33.675C317.304 34.325 317.729 34.85 318.329 35.25C318.929 35.65 319.729 35.85 320.729 35.85C321.929 35.85 323.029 35.825 324.029 35.775C325.029 35.725 325.979 35.65 326.879 35.55C327.829 35.45 328.779 35.375 329.729 35.325C330.729 35.275 331.779 35.25 332.879 35.25C336.529 35.25 339.304 36.275 341.204 38.325C343.154 40.375 344.129 43.225 344.129 46.875C344.129 52.425 342.754 56.275 340.004 58.425C337.304 60.575 334.179 61.65 330.629 61.65C329.379 61.65 328.204 61.65 327.104 61.65C326.054 61.65 325.054 61.65 324.104 61.65C323.204 61.6 322.329 61.575 321.479 61.575C320.679 61.575 319.929 61.575 319.229 61.575C317.979 61.575 316.929 61.75 316.079 62.1C315.279 62.4 314.679 62.8 314.279 63.3C313.929 63.8 313.754 64.375 313.754 65.025C313.754 65.425 313.854 65.8 314.054 66.15C314.304 66.5 314.679 66.8 315.179 67.05C315.679 67.3 316.329 67.525 317.129 67.725C317.929 67.875 318.879 68 319.979 68.1C321.129 68.2 322.479 68.25 324.029 68.25C325.379 68.25 326.829 68.275 328.379 68.325C329.929 68.325 331.454 68.35 332.954 68.4C334.504 68.45 335.854 68.475 337.004 68.475C341.154 68.475 344.254 69.55 346.304 71.7C348.354 73.8 349.379 76.775 349.379 80.625C349.379 84.675 348.129 87.95 345.629 90.45C343.129 92.9 339.879 94.75 335.879 96C331.929 97.3 327.679 98.15 323.129 98.55C318.579 99 314.279 99.225 310.229 99.225Z" fill="#38B000"/>
<path d="M381.766 99.225C376.216 99.225 370.916 98.2 365.866 96.15C360.816 94.1 356.541 90.85 353.041 86.4C349.541 81.95 347.241 76.1 346.141 68.85C345.941 67.45 345.766 66 345.616 64.5C345.466 63 345.341 61.45 345.241 59.85C345.141 58.2 345.066 56.55 345.016 54.9C344.966 53.2 344.941 51.45 344.941 49.65C344.941 40.2 346.066 32.35 348.316 26.1C350.566 19.85 353.791 14.925 357.991 11.325C362.241 7.675 367.341 5.1 373.291 3.6C379.291 2.05 385.991 1.27501 393.391 1.27501C397.241 1.27501 400.841 1.50001 404.191 1.95C407.541 2.35 410.466 3.05 412.966 4.05C415.516 5 417.491 6.30001 418.891 7.95001C420.341 9.60001 421.066 11.65 421.066 14.1C421.066 17.05 420.241 19.45 418.591 21.3C416.991 23.15 415.016 24.425 412.666 25.125C411.016 25.625 408.991 26.075 406.591 26.475C404.241 26.825 401.866 27.125 399.466 27.375C397.116 27.575 395.066 27.7 393.316 27.75C392.216 27.8 391.316 27.95 390.616 28.2C389.966 28.4 389.466 28.7 389.116 29.1C388.766 29.45 388.516 29.875 388.366 30.375C388.266 30.825 388.216 31.275 388.216 31.725C388.216 32.375 388.341 33.025 388.591 33.675C388.841 34.325 389.266 34.85 389.866 35.25C390.466 35.65 391.266 35.85 392.266 35.85C393.466 35.85 394.566 35.825 395.566 35.775C396.566 35.725 397.516 35.65 398.416 35.55C399.366 35.45 400.316 35.375 401.266 35.325C402.266 35.275 403.316 35.25 404.416 35.25C408.066 35.25 410.841 36.275 412.741 38.325C414.691 40.375 415.666 43.225 415.666 46.875C415.666 52.425 414.291 56.275 411.541 58.425C408.841 60.575 405.716 61.65 402.166 61.65C400.916 61.65 399.741 61.65 398.641 61.65C397.591 61.65 396.591 61.65 395.641 61.65C394.741 61.6 393.866 61.575 393.016 61.575C392.216 61.575 391.466 61.575 390.766 61.575C389.516 61.575 388.466 61.75 387.616 62.1C386.816 62.4 386.216 62.8 385.816 63.3C385.466 63.8 385.291 64.375 385.291 65.025C385.291 65.425 385.391 65.8 385.591 66.15C385.841 66.5 386.216 66.8 386.716 67.05C387.216 67.3 387.866 67.525 388.666 67.725C389.466 67.875 390.416 68 391.516 68.1C392.666 68.2 394.016 68.25 395.566 68.25C396.916 68.25 398.366 68.275 399.916 68.325C401.466 68.325 402.991 68.35 404.491 68.4C406.041 68.45 407.391 68.475 408.541 68.475C412.691 68.475 415.791 69.55 417.841 71.7C419.891 73.8 420.916 76.775 420.916 80.625C420.916 84.675 419.666 87.95 417.166 90.45C414.666 92.9 411.416 94.75 407.416 96C403.466 97.3 399.216 98.15 394.666 98.55C390.116 99 385.816 99.225 381.766 99.225Z" fill="#38B000"/>
<path d="M440.254 99.6C436.154 99.6 432.754 98.925 430.054 97.575C427.354 96.225 425.054 94.375 423.154 92.025C422.204 90.825 421.379 89.425 420.679 87.825C419.979 86.225 419.379 84.5 418.879 82.65C418.379 80.75 417.979 78.775 417.679 76.725C417.379 74.675 417.129 72.575 416.929 70.425C416.779 68.275 416.654 66.15 416.554 64.05C416.504 61.95 416.479 59.925 416.479 57.975C416.479 47.775 417.254 38.975 418.804 31.575C420.354 24.175 423.104 18.475 427.054 14.475C431.004 10.475 436.604 8.475 443.854 8.475C448.104 8.475 451.679 8.975 454.579 9.975C457.479 10.975 460.279 12.55 462.979 14.7C465.679 16.8 468.804 19.525 472.354 22.875C475.804 26.125 479.129 29.1 482.329 31.8C485.529 34.45 488.129 35.775 490.129 35.775C490.929 35.775 491.579 35.725 492.079 35.625C492.629 35.475 493.079 35.225 493.429 34.875C493.829 34.475 494.179 33.95 494.479 33.3C494.629 32.95 494.804 32.5 495.004 31.95C495.254 31.35 495.479 30.7 495.679 30C495.929 29.3 496.179 28.55 496.429 27.75C496.729 26.95 497.004 26.15 497.254 25.35C497.554 24.5 497.854 23.7 498.154 22.95C498.454 22.15 498.729 21.4 498.979 20.7C500.579 16.8 502.854 14 505.804 12.3C508.804 10.55 512.879 9.67501 518.029 9.67501C522.179 9.67501 525.629 10.35 528.379 11.7C531.179 13.05 533.429 15.025 535.129 17.625C536.829 20.175 538.029 23.275 538.729 26.925C539.479 30.575 539.854 34.725 539.854 39.375C539.854 41.475 539.779 43.675 539.629 45.975C539.529 48.275 539.354 50.625 539.104 53.025C538.854 55.375 538.529 57.75 538.129 60.15C537.779 62.55 537.354 64.925 536.854 67.275C536.354 69.575 535.779 71.825 535.129 74.025C534.529 76.225 533.829 78.325 533.029 80.325C531.429 84.425 529.504 87.775 527.254 90.375C525.004 92.975 522.279 94.9 519.079 96.15C515.929 97.4 512.154 98.025 507.754 98.025C504.304 98.025 500.879 97.25 497.479 95.7C494.079 94.15 490.754 92.05 487.504 89.4C484.254 86.75 481.079 83.775 477.979 80.475C475.879 78.225 474.129 76.4 472.729 75C471.329 73.6 470.179 72.55 469.279 71.85C468.379 71.1 467.579 70.6 466.879 70.35C466.179 70.1 465.479 69.975 464.779 69.975C463.079 69.975 461.829 70.775 461.029 72.375C460.229 73.975 459.829 77.2 459.829 82.05C459.829 82.9 459.804 83.725 459.754 84.525C459.704 85.325 459.629 86.1 459.529 86.85C459.479 87.6 459.379 88.3 459.229 88.95C459.079 89.6 458.879 90.225 458.629 90.825C458.429 91.375 458.204 91.9 457.954 92.4C457.704 92.9 457.404 93.35 457.054 93.75C455.504 95.6 453.279 97.025 450.379 98.025C447.529 99.075 444.154 99.6 440.254 99.6Z" fill="#38B000"/>
<path d="M569.34 99.75C564.79 99.75 560.19 99.525 555.54 99.075C550.89 98.675 546.615 97.875 542.715 96.675C538.815 95.525 535.665 93.8 533.265 91.5C530.915 89.2 529.74 86.175 529.74 82.425C529.74 78.375 530.665 75.225 532.515 72.975C534.365 70.725 536.815 69.175 539.865 68.325C542.915 67.425 546.215 66.975 549.765 66.975C550.265 66.975 550.94 66.975 551.79 66.975C552.64 66.975 553.465 67 554.265 67.05C555.115 67.05 555.79 67.05 556.29 67.05C557.99 67.05 559.515 67 560.865 66.9C562.265 66.8 563.465 66.6 564.465 66.3C565.465 65.95 566.24 65.475 566.79 64.875C567.34 64.225 567.615 63.4 567.615 62.4C567.615 61.75 567.34 61.175 566.79 60.675C566.29 60.125 565.565 59.625 564.615 59.175C563.665 58.675 562.54 58.225 561.24 57.825C559.94 57.375 558.49 56.9 556.89 56.4C553.84 55.45 550.94 54.225 548.19 52.725C545.44 51.225 542.99 49.45 540.84 47.4C538.74 45.35 537.065 43.05 535.815 40.5C534.615 37.9 534.015 35.075 534.015 32.025C534.015 27.825 535.065 24.125 537.165 20.925C539.315 17.675 542.19 14.9 545.79 12.6C549.39 10.25 553.44 8.35 557.94 6.9C562.49 5.45001 567.19 4.37501 572.04 3.675C576.94 2.97501 581.665 2.62501 586.215 2.62501C589.765 2.62501 593.265 2.80001 596.715 3.15C600.165 3.5 603.315 4.15 606.165 5.10001C609.065 6.05 611.365 7.4 613.065 9.15C614.765 10.85 615.615 13.1 615.615 15.9C615.615 19.45 614.765 22.325 613.065 24.525C611.415 26.675 609.24 28.25 606.54 29.25C603.89 30.25 601.065 30.75 598.065 30.75C597.015 30.75 596.14 30.75 595.44 30.75C594.79 30.75 594.19 30.75 593.64 30.75C593.14 30.75 592.515 30.75 591.765 30.75C591.115 30.75 590.49 30.8 589.89 30.9C589.34 31 588.84 31.15 588.39 31.35C587.99 31.55 587.665 31.825 587.415 32.175C587.215 32.525 587.115 32.975 587.115 33.525C587.115 34.375 587.415 35.15 588.015 35.85C588.615 36.55 589.44 37.2 590.49 37.8C591.59 38.4 592.865 39 594.315 39.6C595.815 40.2 597.465 40.825 599.265 41.475C601.815 42.425 604.465 43.725 607.215 45.375C609.965 46.975 612.515 48.925 614.865 51.225C617.265 53.525 619.19 56.175 620.64 59.175C622.09 62.175 622.815 65.55 622.815 69.3C622.815 74.6 621.315 79.175 618.315 83.025C615.315 86.875 611.265 90.05 606.165 92.55C601.065 95 595.34 96.8 588.99 97.95C582.64 99.15 576.09 99.75 569.34 99.75Z" fill="#38B000"/>
</svg>